<?xml version="1.0" encoding="UTF-8"?>
<svg xmlns="http://www.w3.org/2000/svg" xmlns:xlink="http://www.w3.org/1999/xlink" viewBox="0 0 30 30" width="30px" height="30px">
<g id="surface9676035">
<path style=" stroke:none;fill-rule:nonzero;fill:rgb(80.000001%,80.000001%,80.000001%);fill-opacity:1;" d="M 0 15 C 0 6.714844 6.714844 0 15 0 C 23.285156 0 30 6.714844 30 15 C 30 23.285156 23.285156 30 15 30 C 6.714844 30 0 23.285156 0 15 Z M 15 29.398438 C 22.953125 29.398438 29.398438 22.953125 29.398438 15 C 29.398438 7.046875 22.953125 0.601562 15 0.601562 C 7.046875 0.601562 0.601562 7.046875 0.601562 15 C 0.601562 22.953125 7.046875 29.398438 15 29.398438 Z M 15 29.398438 "/>
<path style=" stroke:none;fill-rule:nonzero;fill:rgb(100%,100%,100%);fill-opacity:1;" d="M 23.066406 8.582031 C 21.132812 7.027344 18.078125 6.765625 17.949219 6.753906 C 17.746094 6.734375 17.550781 6.851562 17.46875 7.039062 C 17.464844 7.042969 17.292969 7.539062 17.128906 8.015625 C 19.375 8.410156 20.902344 9.28125 20.980469 9.328125 C 21.363281 9.550781 21.492188 10.039062 21.269531 10.421875 C 21.121094 10.671875 20.855469 10.816406 20.578125 10.816406 C 20.441406 10.816406 20.304688 10.78125 20.179688 10.707031 C 20.15625 10.695312 17.917969 9.421875 15 9.421875 C 12.082031 9.421875 9.84375 10.695312 9.820312 10.707031 C 9.441406 10.929688 8.953125 10.796875 8.734375 10.417969 C 8.511719 10.039062 8.640625 9.550781 9.019531 9.328125 C 9.101562 9.28125 10.632812 8.40625 12.882812 8.015625 C 12.710938 7.53125 12.535156 7.042969 12.53125 7.039062 C 12.449219 6.851562 12.253906 6.734375 12.050781 6.753906 C 11.921875 6.765625 8.867188 7.027344 6.90625 8.601562 C 5.882812 9.546875 3.839844 15.074219 3.839844 19.851562 C 3.839844 19.9375 3.863281 20.019531 3.90625 20.089844 C 5.316406 22.570312 9.164062 23.21875 10.042969 23.246094 C 10.046875 23.246094 10.050781 23.246094 10.054688 23.246094 C 10.210938 23.246094 10.355469 23.175781 10.449219 23.046875 L 11.398438 21.765625 C 9.316406 21.261719 8.21875 20.472656 8.152344 20.425781 C 7.796875 20.164062 7.71875 19.664062 7.980469 19.3125 C 8.242188 18.957031 8.738281 18.878906 9.09375 19.140625 C 9.121094 19.160156 11.152344 20.578125 15 20.578125 C 18.863281 20.578125 20.886719 19.152344 20.90625 19.136719 C 21.261719 18.882812 21.761719 18.957031 22.019531 19.3125 C 22.277344 19.667969 22.203125 20.164062 21.851562 20.425781 C 21.785156 20.472656 20.691406 21.257812 18.613281 21.761719 L 19.550781 23.046875 C 19.644531 23.175781 19.789062 23.246094 19.945312 23.246094 C 19.949219 23.246094 19.953125 23.246094 19.957031 23.246094 C 20.835938 23.21875 24.683594 22.570312 26.09375 20.089844 C 26.136719 20.015625 26.160156 19.933594 26.160156 19.851562 C 26.160156 15.074219 24.117188 9.546875 23.066406 8.582031 Z M 11.8125 18.1875 C 10.929688 18.1875 10.21875 17.296875 10.21875 16.195312 C 10.21875 15.09375 10.929688 14.203125 11.8125 14.203125 C 12.691406 14.203125 13.40625 15.09375 13.40625 16.195312 C 13.40625 17.296875 12.691406 18.1875 11.8125 18.1875 Z M 18.1875 18.1875 C 17.308594 18.1875 16.59375 17.296875 16.59375 16.195312 C 16.59375 15.09375 17.308594 14.203125 18.1875 14.203125 C 19.070312 14.203125 19.78125 15.09375 19.78125 16.195312 C 19.78125 17.296875 19.070312 18.1875 18.1875 18.1875 Z M 18.1875 18.1875 "/>
</g>
</svg>
