<?xml version="1.0" encoding="UTF-8"?>
<svg xmlns="http://www.w3.org/2000/svg" xmlns:xlink="http://www.w3.org/1999/xlink" viewBox="0 0 30 30" width="30px" height="30px">
<g id="surface9691118">
<path style=" stroke:none;fill-rule:nonzero;fill:rgb(80.000001%,80.000001%,80.000001%);fill-opacity:1;" d="M 0 15 C 0 6.714844 6.714844 0 15 0 C 23.285156 0 30 6.714844 30 15 C 30 23.285156 23.285156 30 15 30 C 6.714844 30 0 23.285156 0 15 Z M 15 29.398438 C 22.953125 29.398438 29.398438 22.953125 29.398438 15 C 29.398438 7.046875 22.953125 0.601562 15 0.601562 C 7.046875 0.601562 0.601562 7.046875 0.601562 15 C 0.601562 22.953125 7.046875 29.398438 15 29.398438 Z M 15 29.398438 "/>
<path style=" stroke:none;fill-rule:nonzero;fill:rgb(100%,100%,100%);fill-opacity:1;" d="M 14.96875 4.800781 C 9.332031 4.800781 4.765625 9.367188 4.765625 15 C 4.765625 20.632812 9.332031 25.199219 14.96875 25.199219 C 23.476562 25.199219 25.394531 17.300781 24.59375 13.300781 L 14.964844 13.300781 L 14.964844 16.699219 L 21.542969 16.699219 C 20.785156 19.632812 18.132812 21.800781 14.964844 21.800781 C 11.210938 21.800781 8.164062 18.753906 8.164062 15 C 8.164062 11.246094 11.210938 8.199219 14.964844 8.199219 C 16.671875 8.199219 18.226562 8.832031 19.421875 9.875 L 21.835938 7.460938 C 20.023438 5.808594 17.613281 4.800781 14.96875 4.800781 Z M 14.96875 4.800781 "/>
</g>
</svg>
